<svg width="34" height="33" viewBox="0 0 34 33" fill="none" xmlns="http://www.w3.org/2000/svg">
<path d="M15.8183 31.0909C8.18672 31.0909 2.00011 24.5787 2.00011 16.5455C2.00011 8.51222 8.18672 2 15.8183 2C23.4499 2 29.6365 8.51222 29.6365 16.5455C29.6365 24.5787 23.4499 31.0909 15.8183 31.0909Z" stroke="#BE8200" stroke-width="2.5" stroke-linecap="round" stroke-linejoin="round"/>
<path d="M19.4546 11.8909C18.5288 11.1402 17.3737 10.7295 16.1818 10.7273C13.1695 10.7273 10.7273 13.3309 10.7273 16.5455C10.7273 19.76 13.1695 22.3636 16.1818 22.3636C17.4095 22.3636 18.5426 21.9302 19.4546 21.2" stroke="#BE8200" stroke-width="2.5" stroke-linecap="round" stroke-linejoin="round"/>
<path d="M15.0908 2C21.3934 2 32 3.40909 32 16.5C32 29.5909 21.3934 31.0909 15.0908 31.0909" stroke="#BE8200" stroke-width="2.5"/>
</svg>
