<svg width="16" height="27" viewBox="0 0 16 27" fill="none" xmlns="http://www.w3.org/2000/svg">
<path d="M13.3333 8.66667H16C16 4.884 12.3267 3.15867 9.33333 2.76133V0H6.66667V2.76133C3.67333 3.15867 0 4.884 0 8.66667C0 12.2747 3.55467 14.1507 6.66667 14.5733V21.2C4.736 20.8653 2.66667 19.8347 2.66667 18H0C0 21.452 3.23333 23.492 6.66667 23.9147V26.6667H9.33333V23.9067C12.3267 23.5093 16 21.7827 16 18C16 14.2173 12.3267 12.492 9.33333 12.0947V5.46667C11.1067 5.78533 13.3333 6.72133 13.3333 8.66667ZM2.66667 8.66667C2.66667 6.72133 4.89333 5.78533 6.66667 5.46667V11.8653C4.83867 11.528 2.66667 10.5293 2.66667 8.66667ZM13.3333 18C13.3333 19.9453 11.1067 20.8813 9.33333 21.2V14.8C11.1067 15.1187 13.3333 16.0547 13.3333 18Z" fill="#0947BE"/>
</svg>
