<svg width="16" height="27" viewBox="0 0 16 27" fill="none" xmlns="http://www.w3.org/2000/svg">
<path d="M13.3244 0C13.8536 0 14.3709 0.15692 14.8109 0.450917C15.2509 0.744914 15.5938 1.16278 15.7963 1.65168C15.9988 2.14058 16.0518 2.67855 15.9486 3.19757C15.8454 3.71658 15.5905 4.19332 15.2163 4.56751C14.8421 4.9417 14.3654 5.19652 13.8464 5.29976C13.3274 5.403 12.7894 5.35001 12.3005 5.1475C11.8116 4.94499 11.3937 4.60206 11.0997 4.16206C10.8057 3.72206 10.6488 3.20477 10.6488 2.67559C10.6488 1.96598 10.9307 1.28543 11.4325 0.783661C11.9343 0.281891 12.6148 0 13.3244 0ZM8.02676 1.33779C8.42364 1.33779 8.81161 1.45548 9.14161 1.67598C9.47161 1.89648 9.72881 2.20988 9.88069 2.57655C10.0326 2.94323 10.0723 3.34671 9.99489 3.73597C9.91746 4.12523 9.72634 4.48278 9.4457 4.76342C9.16506 5.04407 8.8075 5.23518 8.41824 5.31261C8.02898 5.39004 7.6255 5.3503 7.25883 5.19842C6.89215 5.04654 6.57875 4.78934 6.35825 4.45934C6.13776 4.12934 6.02007 3.74137 6.02007 3.34448C6.02007 2.81227 6.23148 2.30187 6.60781 1.92554C6.98414 1.54921 7.49455 1.33779 8.02676 1.33779ZM4.08027 3.34448C4.34486 3.34448 4.60351 3.42294 4.8235 3.56994C5.0435 3.71694 5.21497 3.92587 5.31623 4.17032C5.41748 4.41477 5.44397 4.68376 5.39235 4.94326C5.34074 5.20277 5.21332 5.44114 5.02623 5.62824C4.83914 5.81533 4.60076 5.94274 4.34126 5.99436C4.08175 6.04598 3.81277 6.01949 3.56832 5.91823C3.32387 5.81698 3.11493 5.64551 2.96793 5.42551C2.82094 5.20551 2.74247 4.94686 2.74247 4.68227C2.74247 4.32747 2.88342 3.9872 3.13431 3.73631C3.38519 3.48543 3.72546 3.34448 4.08027 3.34448ZM1.33779 5.35117C1.60238 5.35117 1.86103 5.42963 2.08103 5.57663C2.30103 5.72363 2.4725 5.93256 2.57375 6.17701C2.67501 6.42146 2.7015 6.69045 2.64988 6.94995C2.59826 7.20946 2.47085 7.44783 2.28375 7.63492C2.09666 7.82202 1.85829 7.94943 1.59878 8.00105C1.33928 8.05267 1.07029 8.02618 0.825842 7.92492C0.581392 7.82367 0.372457 7.6522 0.225459 7.4322C0.0784603 7.2122 0 6.95355 0 6.68896C0 6.33416 0.140946 5.99389 0.391831 5.743C0.642715 5.49212 0.982988 5.35117 1.33779 5.35117ZM11.3579 13.3779C11.8245 13.3749 12.2854 13.2742 12.7109 13.0823C13.1363 12.8904 13.5169 12.6116 13.8281 12.2639C14.1393 11.9161 14.3743 11.507 14.518 11.063C14.6616 10.619 14.7108 10.1498 14.6622 9.68562C14.545 8.84659 14.1256 8.07919 13.4827 7.52744C12.8398 6.9757 12.0177 6.67755 11.1706 6.68896H7.85284C6.09539 6.68683 4.38581 7.26156 2.98655 8.3249C1.58728 9.38824 0.575676 10.8814 0.107023 12.5752C-0.0719215 13.1968 -0.0196439 13.8622 0.254181 14.4482C0.852073 15.6827 1.16306 17.0364 1.16388 18.408C1.12198 19.7032 0.807447 20.975 0.240802 22.1405C0.0694087 22.513 -0.0103111 22.9211 0.00830813 23.3307C0.0269273 23.7403 0.143345 24.1396 0.347826 24.495C0.884253 25.3493 1.67409 26.0148 2.60706 26.3986C3.54002 26.7823 4.56953 26.8651 5.55184 26.6354C6.28033 26.467 6.95788 26.1265 7.5278 25.6425C8.09773 25.1585 8.54345 24.545 8.82768 23.8535C9.11191 23.1619 9.22638 22.4123 9.16152 21.6674C9.09665 20.9225 8.85434 20.204 8.45485 19.5719C8.03584 18.9237 7.82573 18.1626 7.85284 17.3913C7.85284 17.3913 7.54515 13.3779 11.3579 13.3779Z" fill="#850029"/>
</svg>
