<svg width="26" height="27" viewBox="0 0 26 27" fill="none" xmlns="http://www.w3.org/2000/svg">
<path d="M25.113 1.68L24.953 0L23.353 0.533333C20.6109 1.48606 17.6827 1.77842 14.8064 1.38667C11.7839 0.917615 8.69026 1.33442 5.8997 2.58667C4.42034 3.21659 3.12204 4.20655 2.123 5.46641C1.12396 6.72627 0.455924 8.21601 0.179703 9.8C-0.178459 11.8463 0.000718772 13.9504 0.699703 15.9067C1.14978 14.8908 1.67571 13.9102 2.27304 12.9733C3.62797 10.9798 5.50541 9.39757 7.6997 8.4C9.81362 7.43483 12.1242 6.97819 14.4464 7.06667C12.2357 7.40466 10.1197 8.19931 8.23304 9.4C7.323 9.9718 6.48961 10.6573 5.75304 11.44C5.04859 12.2223 4.42746 13.0758 3.8997 13.9867C2.90841 15.8907 2.20306 17.9304 1.80637 20.04C1.37879 22.1564 1.1467 24.3077 1.11304 26.4667H3.7797C3.90503 24.5304 4.16792 22.6056 4.56637 20.7067C6.41628 21.7056 8.49084 22.2151 10.593 22.1867C12.5537 22.1853 14.4941 21.7909 16.2997 21.0267C26.4464 16.6933 25.113 2.28 25.113 1.68Z" fill="#008054"/>
</svg>
