<svg width="202" height="202" viewBox="0 0 202 202" fill="none" xmlns="http://www.w3.org/2000/svg">
<rect x="7.03288" y="7.03288" width="187.934" height="187.934" rx="36.3366" fill="#00B34F" stroke="#00B34F" stroke-width="14.0658"/>
<path d="M91.7024 141.251C112.333 143.662 131.069 128.401 133.551 107.163C136.033 85.926 133.435 81.1638 119.93 61.7202C102.738 87.321 69.7262 86.2971 67.2441 107.534C64.7621 128.772 71.0719 138.84 91.7024 141.251Z" fill="white"/>
<path d="M77.4352 129.253V129.253C94.6756 117.701 109.282 102.639 120.298 85.0509L121.402 83.2874" stroke="#00B34F" stroke-width="2.74233" stroke-linecap="round"/>
<path d="M89.3086 119.899V119.899C100.052 119.804 110.654 117.442 120.42 112.966L121.4 112.517" stroke="#00B34F" stroke-width="2.74233" stroke-linecap="round"/>
<path d="M103.27 107.733V107.733C102.693 100.634 103.622 93.4944 105.995 86.7798L106.233 86.1066" stroke="#00B34F" stroke-width="2.74233" stroke-linecap="round"/>
</svg>
