<svg width="139" height="52" viewBox="0 0 139 52" fill="none" xmlns="http://www.w3.org/2000/svg">
<path d="M72.6665 47.3333V51.3333H69.9998V47.3333C69.9998 45.8666 68.7998 44.6666 67.3332 44.6666H63.3332C59.5998 44.6666 56.6665 41.7333 56.6665 38C56.6665 36.4 57.1998 35.0666 58.1332 33.8666C55.0665 33.3333 52.6665 30.5333 52.6665 27.3333C52.6665 26.4 52.9332 25.4666 53.1998 24.6666H56.3998C55.7332 25.3333 55.3332 26.2666 55.3332 27.3333C55.3332 29.6 57.0665 31.3333 59.3332 31.3333H63.3332V34C61.0665 34 59.3332 35.7333 59.3332 38C59.3332 40.2666 61.0665 42 63.3332 42H67.3332C70.2665 42 72.6665 44.4 72.6665 47.3333ZM73.8665 33.8666C76.9332 33.3333 79.3332 30.5333 79.3332 27.3333C79.3332 26.4 79.0665 25.4666 78.7998 24.6666H75.5998C76.2665 25.3333 76.6665 26.2666 76.6665 27.3333C76.6665 29.6 74.9332 31.3333 72.6665 31.3333H71.0665C71.1998 31.7333 71.3332 32.1333 71.3332 32.6666C71.3332 34.9333 69.5998 36.6666 67.3332 36.6666V39.3333C71.0665 39.3333 73.9998 42.2666 73.9998 46V51.3333H76.6665V46C76.6665 42.4 74.6665 39.3333 71.5998 37.7333C72.7998 36.8 73.5998 35.4666 73.8665 33.8666Z" fill="#FF6C01"/>
<path d="M38.7451 3.04688V13H37.4258V3.04688H38.7451ZM42.915 7.52441V8.60449H38.458V7.52441H42.915ZM43.5918 3.04688V4.12695H38.458V3.04688H43.5918ZM44.4873 9.38379V9.22656C44.4873 8.69336 44.5648 8.19889 44.7197 7.74316C44.8747 7.28288 45.098 6.88411 45.3896 6.54688C45.6813 6.20508 46.0345 5.94076 46.4492 5.75391C46.8639 5.5625 47.3288 5.4668 47.8438 5.4668C48.3633 5.4668 48.8304 5.5625 49.2451 5.75391C49.6644 5.94076 50.0199 6.20508 50.3115 6.54688C50.6077 6.88411 50.8333 7.28288 50.9883 7.74316C51.1432 8.19889 51.2207 8.69336 51.2207 9.22656V9.38379C51.2207 9.91699 51.1432 10.4115 50.9883 10.8672C50.8333 11.3229 50.6077 11.7217 50.3115 12.0635C50.0199 12.4007 49.6667 12.665 49.252 12.8564C48.8418 13.0433 48.377 13.1367 47.8574 13.1367C47.3379 13.1367 46.8708 13.0433 46.4561 12.8564C46.0413 12.665 45.6859 12.4007 45.3896 12.0635C45.098 11.7217 44.8747 11.3229 44.7197 10.8672C44.5648 10.4115 44.4873 9.91699 44.4873 9.38379ZM45.752 9.22656V9.38379C45.752 9.75293 45.7952 10.1016 45.8818 10.4297C45.9684 10.7533 46.0983 11.0404 46.2715 11.291C46.4492 11.5417 46.6702 11.7399 46.9346 11.8857C47.1989 12.027 47.5065 12.0977 47.8574 12.0977C48.2038 12.0977 48.5068 12.027 48.7666 11.8857C49.0309 11.7399 49.2497 11.5417 49.4229 11.291C49.596 11.0404 49.7259 10.7533 49.8125 10.4297C49.9036 10.1016 49.9492 9.75293 49.9492 9.38379V9.22656C49.9492 8.86198 49.9036 8.5179 49.8125 8.19434C49.7259 7.86621 49.5938 7.57682 49.416 7.32617C49.2428 7.07096 49.0241 6.87044 48.7598 6.72461C48.5 6.57878 48.1947 6.50586 47.8438 6.50586C47.4974 6.50586 47.1921 6.57878 46.9277 6.72461C46.668 6.87044 46.4492 7.07096 46.2715 7.32617C46.0983 7.57682 45.9684 7.86621 45.8818 8.19434C45.7952 8.5179 45.752 8.86198 45.752 9.22656ZM57.1133 11.0381C57.1133 10.8558 57.0723 10.6872 56.9902 10.5322C56.9128 10.3727 56.751 10.2292 56.5049 10.1016C56.2633 9.9694 55.8988 9.85547 55.4111 9.75977C55.001 9.67318 54.6296 9.57064 54.2969 9.45215C53.9688 9.33366 53.6885 9.1901 53.4561 9.02148C53.2282 8.85286 53.0527 8.65462 52.9297 8.42676C52.8066 8.19889 52.7451 7.93229 52.7451 7.62695C52.7451 7.33529 52.8089 7.05957 52.9365 6.7998C53.0687 6.54004 53.2533 6.3099 53.4902 6.10938C53.7318 5.90885 54.0212 5.75163 54.3584 5.6377C54.6956 5.52376 55.0716 5.4668 55.4863 5.4668C56.0788 5.4668 56.5846 5.57161 57.0039 5.78125C57.4232 5.99089 57.7445 6.27116 57.9678 6.62207C58.1911 6.96842 58.3027 7.35352 58.3027 7.77734H57.0381C57.0381 7.57227 56.9766 7.37402 56.8535 7.18262C56.735 6.98665 56.5596 6.82487 56.3271 6.69727C56.0993 6.56966 55.819 6.50586 55.4863 6.50586C55.1354 6.50586 54.8506 6.56055 54.6318 6.66992C54.4176 6.77474 54.2604 6.90918 54.1602 7.07324C54.0645 7.2373 54.0166 7.41048 54.0166 7.59277C54.0166 7.72949 54.0394 7.85254 54.085 7.96191C54.1351 8.06673 54.2217 8.16471 54.3447 8.25586C54.4678 8.34245 54.641 8.42448 54.8643 8.50195C55.0876 8.57943 55.3724 8.6569 55.7188 8.73438C56.3249 8.87109 56.8239 9.03516 57.2158 9.22656C57.6077 9.41797 57.8994 9.65267 58.0908 9.93066C58.2822 10.2087 58.3779 10.5459 58.3779 10.9424C58.3779 11.266 58.3096 11.5622 58.1729 11.8311C58.0407 12.0999 57.847 12.3324 57.5918 12.5283C57.3411 12.7197 57.0404 12.8701 56.6895 12.9795C56.3431 13.0843 55.9535 13.1367 55.5205 13.1367C54.8688 13.1367 54.3174 13.0205 53.8662 12.7881C53.415 12.5557 53.0732 12.2549 52.8408 11.8857C52.6084 11.5166 52.4922 11.127 52.4922 10.7168H53.7637C53.7819 11.0632 53.8822 11.3389 54.0645 11.5439C54.2467 11.7445 54.4701 11.888 54.7344 11.9746C54.9987 12.0566 55.2607 12.0977 55.5205 12.0977C55.8669 12.0977 56.1562 12.0521 56.3887 11.9609C56.6257 11.8698 56.8057 11.7445 56.9287 11.585C57.0518 11.4255 57.1133 11.2432 57.1133 11.0381ZM64.3457 11.0381C64.3457 10.8558 64.3047 10.6872 64.2227 10.5322C64.1452 10.3727 63.9834 10.2292 63.7373 10.1016C63.4958 9.9694 63.1312 9.85547 62.6436 9.75977C62.2334 9.67318 61.862 9.57064 61.5293 9.45215C61.2012 9.33366 60.9209 9.1901 60.6885 9.02148C60.4606 8.85286 60.2852 8.65462 60.1621 8.42676C60.0391 8.19889 59.9775 7.93229 59.9775 7.62695C59.9775 7.33529 60.0413 7.05957 60.1689 6.7998C60.3011 6.54004 60.4857 6.3099 60.7227 6.10938C60.9642 5.90885 61.2536 5.75163 61.5908 5.6377C61.9281 5.52376 62.304 5.4668 62.7188 5.4668C63.3112 5.4668 63.8171 5.57161 64.2363 5.78125C64.6556 5.99089 64.9769 6.27116 65.2002 6.62207C65.4235 6.96842 65.5352 7.35352 65.5352 7.77734H64.2705C64.2705 7.57227 64.209 7.37402 64.0859 7.18262C63.9674 6.98665 63.792 6.82487 63.5596 6.69727C63.3317 6.56966 63.0514 6.50586 62.7188 6.50586C62.3678 6.50586 62.083 6.56055 61.8643 6.66992C61.6501 6.77474 61.4928 6.90918 61.3926 7.07324C61.2969 7.2373 61.249 7.41048 61.249 7.59277C61.249 7.72949 61.2718 7.85254 61.3174 7.96191C61.3675 8.06673 61.4541 8.16471 61.5771 8.25586C61.7002 8.34245 61.8734 8.42448 62.0967 8.50195C62.32 8.57943 62.6048 8.6569 62.9512 8.73438C63.5573 8.87109 64.0563 9.03516 64.4482 9.22656C64.8402 9.41797 65.1318 9.65267 65.3232 9.93066C65.5146 10.2087 65.6104 10.5459 65.6104 10.9424C65.6104 11.266 65.542 11.5622 65.4053 11.8311C65.2731 12.0999 65.0794 12.3324 64.8242 12.5283C64.5736 12.7197 64.2728 12.8701 63.9219 12.9795C63.5755 13.0843 63.1859 13.1367 62.7529 13.1367C62.1012 13.1367 61.5498 13.0205 61.0986 12.7881C60.6475 12.5557 60.3057 12.2549 60.0732 11.8857C59.8408 11.5166 59.7246 11.127 59.7246 10.7168H60.9961C61.0143 11.0632 61.1146 11.3389 61.2969 11.5439C61.4792 11.7445 61.7025 11.888 61.9668 11.9746C62.2311 12.0566 62.4932 12.0977 62.7529 12.0977C63.0993 12.0977 63.3887 12.0521 63.6211 11.9609C63.8581 11.8698 64.0381 11.7445 64.1611 11.585C64.2842 11.4255 64.3457 11.2432 64.3457 11.0381ZM68.6455 5.60352V13H67.374V5.60352H68.6455ZM67.2783 3.6416C67.2783 3.43652 67.3398 3.26335 67.4629 3.12207C67.5905 2.98079 67.7773 2.91016 68.0234 2.91016C68.265 2.91016 68.4495 2.98079 68.5771 3.12207C68.7093 3.26335 68.7754 3.43652 68.7754 3.6416C68.7754 3.83757 68.7093 4.00618 68.5771 4.14746C68.4495 4.28418 68.265 4.35254 68.0234 4.35254C67.7773 4.35254 67.5905 4.28418 67.4629 4.14746C67.3398 4.00618 67.2783 3.83757 67.2783 3.6416ZM72.0498 2.5V13H70.7783V2.5H72.0498ZM79.0635 3.04688V13H77.7441V3.04688H79.0635ZM83.2334 7.52441V8.60449H78.7764V7.52441H83.2334ZM83.9102 3.04688V4.12695H78.7764V3.04688H83.9102ZM89.666 11.291V5.60352H90.9375V13H89.7275L89.666 11.291ZM89.9053 9.73242L90.4316 9.71875C90.4316 10.2109 90.3792 10.6667 90.2744 11.0859C90.1742 11.5007 90.0101 11.8607 89.7822 12.166C89.5544 12.4714 89.2559 12.7106 88.8867 12.8838C88.5176 13.0524 88.0687 13.1367 87.54 13.1367C87.18 13.1367 86.8496 13.0843 86.5488 12.9795C86.2526 12.8747 85.9974 12.7129 85.7832 12.4941C85.569 12.2754 85.4027 11.9906 85.2842 11.6396C85.1702 11.2887 85.1133 10.8672 85.1133 10.375V5.60352H86.3779V10.3887C86.3779 10.7214 86.4144 10.9971 86.4873 11.2158C86.5648 11.43 86.6673 11.6009 86.7949 11.7285C86.9271 11.8516 87.0729 11.9382 87.2324 11.9883C87.3965 12.0384 87.5651 12.0635 87.7383 12.0635C88.276 12.0635 88.7021 11.9609 89.0166 11.7559C89.3311 11.5462 89.5566 11.266 89.6934 10.915C89.8346 10.5596 89.9053 10.1654 89.9053 9.73242ZM95.9346 13.1367C95.4196 13.1367 94.9525 13.0501 94.5332 12.877C94.1185 12.6992 93.7607 12.4508 93.46 12.1318C93.1637 11.8128 92.9359 11.4346 92.7764 10.9971C92.6169 10.5596 92.5371 10.0811 92.5371 9.56152V9.27441C92.5371 8.67285 92.626 8.13737 92.8037 7.66797C92.9814 7.19401 93.223 6.79297 93.5283 6.46484C93.8337 6.13672 94.18 5.88835 94.5674 5.71973C94.9548 5.55111 95.3558 5.4668 95.7705 5.4668C96.2992 5.4668 96.7549 5.55794 97.1377 5.74023C97.5251 5.92253 97.8418 6.17773 98.0879 6.50586C98.334 6.82943 98.5163 7.21224 98.6348 7.6543C98.7533 8.0918 98.8125 8.57031 98.8125 9.08984V9.65723H93.2891V8.625H97.5479V8.5293C97.5296 8.20117 97.4613 7.88216 97.3428 7.57227C97.2288 7.26237 97.0465 7.00716 96.7959 6.80664C96.5452 6.60612 96.2035 6.50586 95.7705 6.50586C95.4834 6.50586 95.2191 6.56738 94.9775 6.69043C94.736 6.80892 94.5286 6.98665 94.3555 7.22363C94.1823 7.46061 94.0479 7.75 93.9521 8.0918C93.8564 8.43359 93.8086 8.8278 93.8086 9.27441V9.56152C93.8086 9.91243 93.8564 10.2428 93.9521 10.5527C94.0524 10.8581 94.196 11.127 94.3828 11.3594C94.5742 11.5918 94.8044 11.7741 95.0732 11.9062C95.3467 12.0384 95.6566 12.1045 96.0029 12.1045C96.4495 12.1045 96.8278 12.0133 97.1377 11.8311C97.4476 11.6488 97.7188 11.4049 97.9512 11.0996L98.7168 11.708C98.5573 11.9495 98.3545 12.1797 98.1084 12.3984C97.8623 12.6172 97.5592 12.7949 97.1992 12.9316C96.8438 13.0684 96.4222 13.1367 95.9346 13.1367ZM101.663 2.5V13H100.392V2.5H101.663Z" fill="#6C7D8C"/>
</svg>
