<svg width="588" height="202" viewBox="0 0 588 202" fill="none" xmlns="http://www.w3.org/2000/svg">
<rect x="7.03288" y="7.03288" width="187.934" height="187.934" rx="36.3366" fill="#00B34F" stroke="#00B34F" stroke-width="14.0658"/>
<path d="M91.7024 141.251C112.333 143.662 131.069 128.401 133.551 107.163C136.033 85.926 133.435 81.1638 119.93 61.7202C102.738 87.321 69.7262 86.2971 67.2441 107.534C64.7621 128.772 71.0719 138.84 91.7024 141.251Z" fill="white"/>
<path d="M77.4352 129.253V129.253C94.6756 117.701 109.282 102.639 120.298 85.0509L121.402 83.2874" stroke="#00B34F" stroke-width="2.74233" stroke-linecap="round"/>
<path d="M89.3086 119.899V119.899C100.052 119.804 110.654 117.442 120.42 112.966L121.4 112.517" stroke="#00B34F" stroke-width="2.74233" stroke-linecap="round"/>
<path d="M103.27 107.733V107.733C102.693 100.634 103.622 93.4943 105.995 86.7798L106.233 86.1066" stroke="#00B34F" stroke-width="2.74233" stroke-linecap="round"/>
<path d="M227.625 54H234.375V84.1875L233.695 90H227.625V54ZM250.43 77.0625V77.5547C250.43 79.4453 250.227 81.1797 249.82 82.7578C249.43 84.3359 248.82 85.7031 247.992 86.8594C247.164 88 246.133 88.8906 244.898 89.5312C243.68 90.1562 242.242 90.4688 240.586 90.4688C239.039 90.4688 237.695 90.1562 236.555 89.5312C235.43 88.9062 234.484 88.0234 233.719 86.8828C232.953 85.7422 232.336 84.4062 231.867 82.875C231.398 81.3438 231.047 79.6719 230.812 77.8594V76.7812C231.047 74.9688 231.398 73.2969 231.867 71.7656C232.336 70.2344 232.953 68.8984 233.719 67.7578C234.484 66.6172 235.43 65.7344 236.555 65.1094C237.68 64.4844 239.008 64.1719 240.539 64.1719C242.211 64.1719 243.664 64.4922 244.898 65.1328C246.148 65.7578 247.18 66.6484 247.992 67.8047C248.82 68.9453 249.43 70.3047 249.82 71.8828C250.227 73.4453 250.43 75.1719 250.43 77.0625ZM243.68 77.5547V77.0625C243.68 76.0312 243.602 75.0625 243.445 74.1562C243.305 73.2344 243.055 72.4297 242.695 71.7422C242.336 71.0391 241.844 70.4844 241.219 70.0781C240.609 69.6719 239.82 69.4688 238.852 69.4688C237.93 69.4688 237.148 69.625 236.508 69.9375C235.867 70.25 235.336 70.6875 234.914 71.25C234.508 71.8125 234.203 72.4844 234 73.2656C233.797 74.0312 233.672 74.875 233.625 75.7969V78.8672C233.672 80.1016 233.875 81.1953 234.234 82.1484C234.609 83.0859 235.172 83.8281 235.922 84.375C236.688 84.9062 237.68 85.1719 238.898 85.1719C239.852 85.1719 240.641 84.9844 241.266 84.6094C241.891 84.2344 242.375 83.7031 242.719 83.0156C243.078 82.3281 243.328 81.5234 243.469 80.6016C243.609 79.6641 243.68 78.6484 243.68 77.5547ZM253.547 77.5781V77.0859C253.547 75.2266 253.812 73.5156 254.344 71.9531C254.875 70.375 255.648 69.0078 256.664 67.8516C257.68 66.6953 258.93 65.7969 260.414 65.1562C261.898 64.5 263.602 64.1719 265.523 64.1719C267.445 64.1719 269.156 64.5 270.656 65.1562C272.156 65.7969 273.414 66.6953 274.43 67.8516C275.461 69.0078 276.242 70.375 276.773 71.9531C277.305 73.5156 277.57 75.2266 277.57 77.0859V77.5781C277.57 79.4219 277.305 81.1328 276.773 82.7109C276.242 84.2734 275.461 85.6406 274.43 86.8125C273.414 87.9688 272.164 88.8672 270.68 89.5078C269.195 90.1484 267.492 90.4688 265.57 90.4688C263.648 90.4688 261.938 90.1484 260.438 89.5078C258.953 88.8672 257.695 87.9688 256.664 86.8125C255.648 85.6406 254.875 84.2734 254.344 82.7109C253.812 81.1328 253.547 79.4219 253.547 77.5781ZM260.297 77.0859V77.5781C260.297 78.6406 260.391 79.6328 260.578 80.5547C260.766 81.4766 261.062 82.2891 261.469 82.9922C261.891 83.6797 262.438 84.2188 263.109 84.6094C263.781 85 264.602 85.1953 265.57 85.1953C266.508 85.1953 267.312 85 267.984 84.6094C268.656 84.2188 269.195 83.6797 269.602 82.9922C270.008 82.2891 270.305 81.4766 270.492 80.5547C270.695 79.6328 270.797 78.6406 270.797 77.5781V77.0859C270.797 76.0547 270.695 75.0859 270.492 74.1797C270.305 73.2578 270 72.4453 269.578 71.7422C269.172 71.0234 268.633 70.4609 267.961 70.0547C267.289 69.6484 266.477 69.4453 265.523 69.4453C264.57 69.4453 263.758 69.6484 263.086 70.0547C262.43 70.4609 261.891 71.0234 261.469 71.7422C261.062 72.4453 260.766 73.2578 260.578 74.1797C260.391 75.0859 260.297 76.0547 260.297 77.0859ZM286.641 64.6406L290.836 72.3516L295.148 64.6406H302.344L295.172 77.0391L302.672 90H295.453L290.883 81.8438L286.312 90H279.094L286.594 77.0391L279.422 64.6406H286.641ZM324.82 83.4375L330.094 64.6406H334.383L333 72.0234L327.727 90H324.141L324.82 83.4375ZM322.148 64.6406L325.922 83.4141L326.273 90H322.055L315.633 64.6406H322.148ZM339.211 83.1094L342.891 64.6406H349.43L343.008 90H338.812L339.211 83.1094ZM334.969 64.6406L340.219 83.2969L340.945 90H337.336L332.062 72.0469L330.727 64.6406H334.969ZM359.953 64.6406V90H353.18V64.6406H359.953ZM352.758 58.0312C352.758 57.0469 353.102 56.2344 353.789 55.5938C354.477 54.9531 355.398 54.6328 356.555 54.6328C357.695 54.6328 358.609 54.9531 359.297 55.5938C360 56.2344 360.352 57.0469 360.352 58.0312C360.352 59.0156 360 59.8281 359.297 60.4688C358.609 61.1094 357.695 61.4297 356.555 61.4297C355.398 61.4297 354.477 61.1094 353.789 60.4688C353.102 59.8281 352.758 59.0156 352.758 58.0312ZM377.953 64.6406V69.4219H363.188V64.6406H377.953ZM366.844 58.3828H373.594V82.3594C373.594 83.0938 373.688 83.6562 373.875 84.0469C374.078 84.4375 374.375 84.7109 374.766 84.8672C375.156 85.0078 375.648 85.0781 376.242 85.0781C376.664 85.0781 377.039 85.0625 377.367 85.0312C377.711 84.9844 378 84.9375 378.234 84.8906L378.258 89.8594C377.68 90.0469 377.055 90.1953 376.383 90.3047C375.711 90.4141 374.969 90.4688 374.156 90.4688C372.672 90.4688 371.375 90.2266 370.266 89.7422C369.172 89.2422 368.328 88.4453 367.734 87.3516C367.141 86.2578 366.844 84.8203 366.844 83.0391V58.3828ZM388.383 54V90H381.633V54H388.383ZM387.422 76.4297H385.57C385.586 74.6641 385.82 73.0391 386.273 71.5547C386.727 70.0547 387.375 68.7578 388.219 67.6641C389.062 66.5547 390.07 65.6953 391.242 65.0859C392.43 64.4766 393.742 64.1719 395.18 64.1719C396.43 64.1719 397.562 64.3516 398.578 64.7109C399.609 65.0547 400.492 65.6172 401.227 66.3984C401.977 67.1641 402.555 68.1719 402.961 69.4219C403.367 70.6719 403.57 72.1875 403.57 73.9688V90H396.773V73.9219C396.773 72.7969 396.609 71.9141 396.281 71.2734C395.969 70.6172 395.508 70.1562 394.898 69.8906C394.305 69.6094 393.57 69.4688 392.695 69.4688C391.727 69.4688 390.898 69.6484 390.211 70.0078C389.539 70.3672 389 70.8672 388.594 71.5078C388.188 72.1328 387.891 72.8672 387.703 73.7109C387.516 74.5547 387.422 75.4609 387.422 76.4297ZM234.375 126.172V146H227.625V120.641H233.977L234.375 126.172ZM242.016 120.477L241.898 126.734C241.57 126.688 241.172 126.648 240.703 126.617C240.25 126.57 239.836 126.547 239.461 126.547C238.508 126.547 237.68 126.672 236.977 126.922C236.289 127.156 235.711 127.508 235.242 127.977C234.789 128.445 234.445 129.016 234.211 129.688C233.992 130.359 233.867 131.125 233.836 131.984L232.477 131.562C232.477 129.922 232.641 128.414 232.969 127.039C233.297 125.648 233.773 124.438 234.398 123.406C235.039 122.375 235.82 121.578 236.742 121.016C237.664 120.453 238.719 120.172 239.906 120.172C240.281 120.172 240.664 120.203 241.055 120.266C241.445 120.312 241.766 120.383 242.016 120.477ZM243.422 133.578V133.086C243.422 131.227 243.688 129.516 244.219 127.953C244.75 126.375 245.523 125.008 246.539 123.852C247.555 122.695 248.805 121.797 250.289 121.156C251.773 120.5 253.477 120.172 255.398 120.172C257.32 120.172 259.031 120.5 260.531 121.156C262.031 121.797 263.289 122.695 264.305 123.852C265.336 125.008 266.117 126.375 266.648 127.953C267.18 129.516 267.445 131.227 267.445 133.086V133.578C267.445 135.422 267.18 137.133 266.648 138.711C266.117 140.273 265.336 141.641 264.305 142.812C263.289 143.969 262.039 144.867 260.555 145.508C259.07 146.148 257.367 146.469 255.445 146.469C253.523 146.469 251.812 146.148 250.312 145.508C248.828 144.867 247.57 143.969 246.539 142.812C245.523 141.641 244.75 140.273 244.219 138.711C243.688 137.133 243.422 135.422 243.422 133.578ZM250.172 133.086V133.578C250.172 134.641 250.266 135.633 250.453 136.555C250.641 137.477 250.938 138.289 251.344 138.992C251.766 139.68 252.312 140.219 252.984 140.609C253.656 141 254.477 141.195 255.445 141.195C256.383 141.195 257.188 141 257.859 140.609C258.531 140.219 259.07 139.68 259.477 138.992C259.883 138.289 260.18 137.477 260.367 136.555C260.57 135.633 260.672 134.641 260.672 133.578V133.086C260.672 132.055 260.57 131.086 260.367 130.18C260.18 129.258 259.875 128.445 259.453 127.742C259.047 127.023 258.508 126.461 257.836 126.055C257.164 125.648 256.352 125.445 255.398 125.445C254.445 125.445 253.633 125.648 252.961 126.055C252.305 126.461 251.766 127.023 251.344 127.742C250.938 128.445 250.641 129.258 250.453 130.18C250.266 131.086 250.172 132.055 250.172 133.086ZM286.594 139.93V120.641H293.344V146H286.992L286.594 139.93ZM287.344 134.727L289.336 134.68C289.336 136.367 289.141 137.938 288.75 139.391C288.359 140.828 287.773 142.078 286.992 143.141C286.211 144.188 285.227 145.008 284.039 145.602C282.852 146.18 281.453 146.469 279.844 146.469C278.609 146.469 277.469 146.297 276.422 145.953C275.391 145.594 274.5 145.039 273.75 144.289C273.016 143.523 272.438 142.547 272.016 141.359C271.609 140.156 271.406 138.711 271.406 137.023V120.641H278.156V137.07C278.156 137.82 278.242 138.453 278.414 138.969C278.602 139.484 278.859 139.906 279.188 140.234C279.516 140.562 279.898 140.797 280.336 140.938C280.789 141.078 281.289 141.148 281.836 141.148C283.227 141.148 284.32 140.867 285.117 140.305C285.93 139.742 286.5 138.977 286.828 138.008C287.172 137.023 287.344 135.93 287.344 134.727ZM305.109 126.055V146H298.359V120.641H304.688L305.109 126.055ZM304.125 132.43H302.297C302.297 130.555 302.539 128.867 303.023 127.367C303.508 125.852 304.188 124.562 305.062 123.5C305.938 122.422 306.977 121.602 308.18 121.039C309.398 120.461 310.758 120.172 312.258 120.172C313.445 120.172 314.531 120.344 315.516 120.688C316.5 121.031 317.344 121.578 318.047 122.328C318.766 123.078 319.312 124.07 319.688 125.305C320.078 126.539 320.273 128.047 320.273 129.828V146H313.477V129.805C313.477 128.68 313.32 127.805 313.008 127.18C312.695 126.555 312.234 126.117 311.625 125.867C311.031 125.602 310.297 125.469 309.422 125.469C308.516 125.469 307.727 125.648 307.055 126.008C306.398 126.367 305.852 126.867 305.414 127.508C304.992 128.133 304.672 128.867 304.453 129.711C304.234 130.555 304.125 131.461 304.125 132.43ZM340.383 140.469V110H347.18V146H341.062L340.383 140.469ZM324.352 133.625V133.133C324.352 131.195 324.57 129.438 325.008 127.859C325.445 126.266 326.086 124.898 326.93 123.758C327.773 122.617 328.812 121.734 330.047 121.109C331.281 120.484 332.688 120.172 334.266 120.172C335.75 120.172 337.047 120.484 338.156 121.109C339.281 121.734 340.234 122.625 341.016 123.781C341.812 124.922 342.453 126.273 342.938 127.836C343.422 129.383 343.773 131.078 343.992 132.922V134C343.773 135.766 343.422 137.406 342.938 138.922C342.453 140.438 341.812 141.766 341.016 142.906C340.234 144.031 339.281 144.906 338.156 145.531C337.031 146.156 335.719 146.469 334.219 146.469C332.641 146.469 331.234 146.148 330 145.508C328.781 144.867 327.75 143.969 326.906 142.812C326.078 141.656 325.445 140.297 325.008 138.734C324.57 137.172 324.352 135.469 324.352 133.625ZM331.102 133.133V133.625C331.102 134.672 331.18 135.648 331.336 136.555C331.508 137.461 331.781 138.266 332.156 138.969C332.547 139.656 333.047 140.195 333.656 140.586C334.281 140.961 335.039 141.148 335.93 141.148C337.086 141.148 338.039 140.891 338.789 140.375C339.539 139.844 340.109 139.117 340.5 138.195C340.906 137.273 341.141 136.211 341.203 135.008V131.938C341.156 130.953 341.016 130.07 340.781 129.289C340.562 128.492 340.234 127.812 339.797 127.25C339.375 126.688 338.844 126.25 338.203 125.938C337.578 125.625 336.836 125.469 335.977 125.469C335.102 125.469 334.352 125.672 333.727 126.078C333.102 126.469 332.594 127.008 332.203 127.695C331.828 128.383 331.547 129.195 331.359 130.133C331.188 131.055 331.102 132.055 331.102 133.133ZM364.125 146.469C362.156 146.469 360.391 146.156 358.828 145.531C357.266 144.891 355.938 144.008 354.844 142.883C353.766 141.758 352.938 140.453 352.359 138.969C351.781 137.469 351.492 135.875 351.492 134.188V133.25C351.492 131.328 351.766 129.57 352.312 127.977C352.859 126.383 353.641 125 354.656 123.828C355.688 122.656 356.938 121.758 358.406 121.133C359.875 120.492 361.531 120.172 363.375 120.172C365.172 120.172 366.766 120.469 368.156 121.062C369.547 121.656 370.711 122.5 371.648 123.594C372.602 124.688 373.32 126 373.805 127.531C374.289 129.047 374.531 130.734 374.531 132.594V135.406H354.375V130.906H367.898V130.391C367.898 129.453 367.727 128.617 367.383 127.883C367.055 127.133 366.555 126.539 365.883 126.102C365.211 125.664 364.352 125.445 363.305 125.445C362.414 125.445 361.648 125.641 361.008 126.031C360.367 126.422 359.844 126.969 359.438 127.672C359.047 128.375 358.75 129.203 358.547 130.156C358.359 131.094 358.266 132.125 358.266 133.25V134.188C358.266 135.203 358.406 136.141 358.688 137C358.984 137.859 359.398 138.602 359.93 139.227C360.477 139.852 361.133 140.336 361.898 140.68C362.68 141.023 363.562 141.195 364.547 141.195C365.766 141.195 366.898 140.961 367.945 140.492C369.008 140.008 369.922 139.281 370.688 138.312L373.969 141.875C373.438 142.641 372.711 143.375 371.789 144.078C370.883 144.781 369.789 145.359 368.508 145.812C367.227 146.25 365.766 146.469 364.125 146.469ZM393.352 140.469V110H400.148V146H394.031L393.352 140.469ZM377.32 133.625V133.133C377.32 131.195 377.539 129.438 377.977 127.859C378.414 126.266 379.055 124.898 379.898 123.758C380.742 122.617 381.781 121.734 383.016 121.109C384.25 120.484 385.656 120.172 387.234 120.172C388.719 120.172 390.016 120.484 391.125 121.109C392.25 121.734 393.203 122.625 393.984 123.781C394.781 124.922 395.422 126.273 395.906 127.836C396.391 129.383 396.742 131.078 396.961 132.922V134C396.742 135.766 396.391 137.406 395.906 138.922C395.422 140.438 394.781 141.766 393.984 142.906C393.203 144.031 392.25 144.906 391.125 145.531C390 146.156 388.688 146.469 387.188 146.469C385.609 146.469 384.203 146.148 382.969 145.508C381.75 144.867 380.719 143.969 379.875 142.812C379.047 141.656 378.414 140.297 377.977 138.734C377.539 137.172 377.32 135.469 377.32 133.625ZM384.07 133.133V133.625C384.07 134.672 384.148 135.648 384.305 136.555C384.477 137.461 384.75 138.266 385.125 138.969C385.516 139.656 386.016 140.195 386.625 140.586C387.25 140.961 388.008 141.148 388.898 141.148C390.055 141.148 391.008 140.891 391.758 140.375C392.508 139.844 393.078 139.117 393.469 138.195C393.875 137.273 394.109 136.211 394.172 135.008V131.938C394.125 130.953 393.984 130.07 393.75 129.289C393.531 128.492 393.203 127.812 392.766 127.25C392.344 126.688 391.812 126.25 391.172 125.938C390.547 125.625 389.805 125.469 388.945 125.469C388.07 125.469 387.32 125.672 386.695 126.078C386.07 126.469 385.562 127.008 385.172 127.695C384.797 128.383 384.516 129.195 384.328 130.133C384.156 131.055 384.07 132.055 384.07 133.133ZM427.852 141.195C428.68 141.195 429.414 141.039 430.055 140.727C430.695 140.398 431.195 139.945 431.555 139.367C431.93 138.773 432.125 138.078 432.141 137.281H438.492C438.477 139.062 438 140.648 437.062 142.039C436.125 143.414 434.867 144.5 433.289 145.297C431.711 146.078 429.945 146.469 427.992 146.469C426.023 146.469 424.305 146.141 422.836 145.484C421.383 144.828 420.172 143.922 419.203 142.766C418.234 141.594 417.508 140.234 417.023 138.688C416.539 137.125 416.297 135.453 416.297 133.672V132.992C416.297 131.195 416.539 129.523 417.023 127.977C417.508 126.414 418.234 125.055 419.203 123.898C420.172 122.727 421.383 121.812 422.836 121.156C424.289 120.5 425.992 120.172 427.945 120.172C430.023 120.172 431.844 120.57 433.406 121.367C434.984 122.164 436.219 123.305 437.109 124.789C438.016 126.258 438.477 128 438.492 130.016H432.141C432.125 129.172 431.945 128.406 431.602 127.719C431.273 127.031 430.789 126.484 430.148 126.078C429.523 125.656 428.75 125.445 427.828 125.445C426.844 125.445 426.039 125.656 425.414 126.078C424.789 126.484 424.305 127.047 423.961 127.766C423.617 128.469 423.375 129.273 423.234 130.18C423.109 131.07 423.047 132.008 423.047 132.992V133.672C423.047 134.656 423.109 135.602 423.234 136.508C423.359 137.414 423.594 138.219 423.938 138.922C424.297 139.625 424.789 140.18 425.414 140.586C426.039 140.992 426.852 141.195 427.852 141.195ZM441.328 133.578V133.086C441.328 131.227 441.594 129.516 442.125 127.953C442.656 126.375 443.43 125.008 444.445 123.852C445.461 122.695 446.711 121.797 448.195 121.156C449.68 120.5 451.383 120.172 453.305 120.172C455.227 120.172 456.938 120.5 458.438 121.156C459.938 121.797 461.195 122.695 462.211 123.852C463.242 125.008 464.023 126.375 464.555 127.953C465.086 129.516 465.352 131.227 465.352 133.086V133.578C465.352 135.422 465.086 137.133 464.555 138.711C464.023 140.273 463.242 141.641 462.211 142.812C461.195 143.969 459.945 144.867 458.461 145.508C456.977 146.148 455.273 146.469 453.352 146.469C451.43 146.469 449.719 146.148 448.219 145.508C446.734 144.867 445.477 143.969 444.445 142.812C443.43 141.641 442.656 140.273 442.125 138.711C441.594 137.133 441.328 135.422 441.328 133.578ZM448.078 133.086V133.578C448.078 134.641 448.172 135.633 448.359 136.555C448.547 137.477 448.844 138.289 449.25 138.992C449.672 139.68 450.219 140.219 450.891 140.609C451.562 141 452.383 141.195 453.352 141.195C454.289 141.195 455.094 141 455.766 140.609C456.438 140.219 456.977 139.68 457.383 138.992C457.789 138.289 458.086 137.477 458.273 136.555C458.477 135.633 458.578 134.641 458.578 133.578V133.086C458.578 132.055 458.477 131.086 458.273 130.18C458.086 129.258 457.781 128.445 457.359 127.742C456.953 127.023 456.414 126.461 455.742 126.055C455.07 125.648 454.258 125.445 453.305 125.445C452.352 125.445 451.539 125.648 450.867 126.055C450.211 126.461 449.672 127.023 449.25 127.742C448.844 128.445 448.547 129.258 448.359 130.18C448.172 131.086 448.078 132.055 448.078 133.086ZM476.25 126.172V146H469.5V120.641H475.852L476.25 126.172ZM483.891 120.477L483.773 126.734C483.445 126.688 483.047 126.648 482.578 126.617C482.125 126.57 481.711 126.547 481.336 126.547C480.383 126.547 479.555 126.672 478.852 126.922C478.164 127.156 477.586 127.508 477.117 127.977C476.664 128.445 476.32 129.016 476.086 129.688C475.867 130.359 475.742 131.125 475.711 131.984L474.352 131.562C474.352 129.922 474.516 128.414 474.844 127.039C475.172 125.648 475.648 124.438 476.273 123.406C476.914 122.375 477.695 121.578 478.617 121.016C479.539 120.453 480.594 120.172 481.781 120.172C482.156 120.172 482.539 120.203 482.93 120.266C483.32 120.312 483.641 120.383 483.891 120.477ZM493.688 126.055V146H486.938V120.641H493.266L493.688 126.055ZM492.703 132.43H490.875C490.875 130.555 491.117 128.867 491.602 127.367C492.086 125.852 492.766 124.562 493.641 123.5C494.516 122.422 495.555 121.602 496.758 121.039C497.977 120.461 499.336 120.172 500.836 120.172C502.023 120.172 503.109 120.344 504.094 120.688C505.078 121.031 505.922 121.578 506.625 122.328C507.344 123.078 507.891 124.07 508.266 125.305C508.656 126.539 508.852 128.047 508.852 129.828V146H502.055V129.805C502.055 128.68 501.898 127.805 501.586 127.18C501.273 126.555 500.812 126.117 500.203 125.867C499.609 125.602 498.875 125.469 498 125.469C497.094 125.469 496.305 125.648 495.633 126.008C494.977 126.367 494.43 126.867 493.992 127.508C493.57 128.133 493.25 128.867 493.031 129.711C492.812 130.555 492.703 131.461 492.703 132.43ZM525.656 146.469C523.688 146.469 521.922 146.156 520.359 145.531C518.797 144.891 517.469 144.008 516.375 142.883C515.297 141.758 514.469 140.453 513.891 138.969C513.312 137.469 513.023 135.875 513.023 134.188V133.25C513.023 131.328 513.297 129.57 513.844 127.977C514.391 126.383 515.172 125 516.188 123.828C517.219 122.656 518.469 121.758 519.938 121.133C521.406 120.492 523.062 120.172 524.906 120.172C526.703 120.172 528.297 120.469 529.688 121.062C531.078 121.656 532.242 122.5 533.18 123.594C534.133 124.688 534.852 126 535.336 127.531C535.82 129.047 536.062 130.734 536.062 132.594V135.406H515.906V130.906H529.43V130.391C529.43 129.453 529.258 128.617 528.914 127.883C528.586 127.133 528.086 126.539 527.414 126.102C526.742 125.664 525.883 125.445 524.836 125.445C523.945 125.445 523.18 125.641 522.539 126.031C521.898 126.422 521.375 126.969 520.969 127.672C520.578 128.375 520.281 129.203 520.078 130.156C519.891 131.094 519.797 132.125 519.797 133.25V134.188C519.797 135.203 519.938 136.141 520.219 137C520.516 137.859 520.93 138.602 521.461 139.227C522.008 139.852 522.664 140.336 523.43 140.68C524.211 141.023 525.094 141.195 526.078 141.195C527.297 141.195 528.43 140.961 529.477 140.492C530.539 140.008 531.453 139.281 532.219 138.312L535.5 141.875C534.969 142.641 534.242 143.375 533.32 144.078C532.414 144.781 531.32 145.359 530.039 145.812C528.758 146.25 527.297 146.469 525.656 146.469ZM546.656 126.172V146H539.906V120.641H546.258L546.656 126.172ZM554.297 120.477L554.18 126.734C553.852 126.688 553.453 126.648 552.984 126.617C552.531 126.57 552.117 126.547 551.742 126.547C550.789 126.547 549.961 126.672 549.258 126.922C548.57 127.156 547.992 127.508 547.523 127.977C547.07 128.445 546.727 129.016 546.492 129.688C546.273 130.359 546.148 131.125 546.117 131.984L544.758 131.562C544.758 129.922 544.922 128.414 545.25 127.039C545.578 125.648 546.055 124.438 546.68 123.406C547.32 122.375 548.102 121.578 549.023 121.016C549.945 120.453 551 120.172 552.188 120.172C552.562 120.172 552.945 120.203 553.336 120.266C553.727 120.312 554.047 120.383 554.297 120.477ZM571.195 138.992C571.195 138.508 571.055 138.07 570.773 137.68C570.492 137.289 569.969 136.93 569.203 136.602C568.453 136.258 567.367 135.945 565.945 135.664C564.664 135.383 563.469 135.031 562.359 134.609C561.266 134.172 560.312 133.648 559.5 133.039C558.703 132.43 558.078 131.711 557.625 130.883C557.172 130.039 556.945 129.078 556.945 128C556.945 126.938 557.172 125.938 557.625 125C558.094 124.062 558.758 123.234 559.617 122.516C560.492 121.781 561.555 121.211 562.805 120.805C564.07 120.383 565.492 120.172 567.07 120.172C569.273 120.172 571.164 120.523 572.742 121.227C574.336 121.93 575.555 122.898 576.398 124.133C577.258 125.352 577.688 126.742 577.688 128.305H570.938C570.938 127.648 570.797 127.062 570.516 126.547C570.25 126.016 569.828 125.602 569.25 125.305C568.688 124.992 567.953 124.836 567.047 124.836C566.297 124.836 565.648 124.969 565.102 125.234C564.555 125.484 564.133 125.828 563.836 126.266C563.555 126.688 563.414 127.156 563.414 127.672C563.414 128.062 563.492 128.414 563.648 128.727C563.82 129.023 564.094 129.297 564.469 129.547C564.844 129.797 565.328 130.031 565.922 130.25C566.531 130.453 567.281 130.641 568.172 130.812C570 131.188 571.633 131.68 573.07 132.289C574.508 132.883 575.648 133.695 576.492 134.727C577.336 135.742 577.758 137.078 577.758 138.734C577.758 139.859 577.508 140.891 577.008 141.828C576.508 142.766 575.789 143.586 574.852 144.289C573.914 144.977 572.789 145.516 571.477 145.906C570.18 146.281 568.719 146.469 567.094 146.469C564.734 146.469 562.734 146.047 561.094 145.203C559.469 144.359 558.234 143.289 557.391 141.992C556.562 140.68 556.148 139.336 556.148 137.961H562.547C562.578 138.883 562.812 139.625 563.25 140.188C563.703 140.75 564.273 141.156 564.961 141.406C565.664 141.656 566.422 141.781 567.234 141.781C568.109 141.781 568.836 141.664 569.414 141.43C569.992 141.18 570.43 140.852 570.727 140.445C571.039 140.023 571.195 139.539 571.195 138.992Z" fill="#00554A"/>
</svg>
