<svg width="139" height="50" viewBox="0 0 139 50" fill="none" xmlns="http://www.w3.org/2000/svg">
<path d="M71 27.9999C69.3168 27.9997 67.6765 28.5301 66.312 29.5157C64.9476 30.5013 63.9287 31.892 63.4 33.4899C63.3627 33.6192 63.2998 33.7396 63.2149 33.8439C63.13 33.9483 63.025 34.0344 62.906 34.0972C62.7871 34.16 62.6567 34.1981 62.5226 34.2094C62.3886 34.2206 62.2537 34.2047 62.1259 34.1625C61.9982 34.1204 61.8803 34.0529 61.7792 33.9642C61.6782 33.8754 61.596 33.7672 61.5378 33.6459C61.4795 33.5247 61.4464 33.393 61.4402 33.2586C61.4341 33.1242 61.4551 32.99 61.502 32.8639C62.1962 30.7676 63.5646 28.9598 65.3937 27.7225C67.2229 26.4852 69.4101 25.8879 71.6143 26.0237C73.8184 26.1596 75.9157 27.0209 77.5791 28.4735C79.2425 29.926 80.3785 31.8882 80.81 34.0539C82.3185 34.2577 83.6932 35.0272 84.6556 36.2066C85.618 37.386 86.0961 38.8871 85.9931 40.4059C85.8901 41.9246 85.2138 43.3474 84.101 44.3861C82.9882 45.4248 81.5222 46.0017 80 45.9999H63C62.7348 45.9999 62.4804 45.8946 62.2929 45.7071C62.1054 45.5195 62 45.2652 62 44.9999C62 44.7347 62.1054 44.4804 62.2929 44.2928C62.4804 44.1053 62.7348 43.9999 63 43.9999H80C81.0609 44.0002 82.0784 43.579 82.8287 42.8291C83.5791 42.0791 84.0007 41.0618 84.001 40.0009C84.0013 38.9401 83.5801 37.9226 82.8301 37.1722C82.0802 36.4219 81.0629 36.0002 80.002 35.9999H79.95C79.7028 36.0014 79.4638 35.9113 79.2791 35.747C79.0944 35.5826 78.9772 35.3557 78.95 35.1099C78.7311 33.1546 77.7993 31.3485 76.3327 30.0368C74.8661 28.7252 72.9676 28 71 27.9999ZM54 36.9999C54 36.7347 54.1054 36.4804 54.2929 36.2928C54.4804 36.1053 54.7348 35.9999 55 35.9999H65C65.2652 35.9999 65.5196 36.1053 65.7071 36.2928C65.8946 36.4804 66 36.7347 66 36.9999C66 37.2652 65.8946 37.5195 65.7071 37.7071C65.5196 37.8946 65.2652 37.9999 65 37.9999H55C54.7348 37.9999 54.4804 37.8946 54.2929 37.7071C54.1054 37.5195 54 37.2652 54 36.9999ZM58 40.9999C58 40.7347 58.1054 40.4804 58.2929 40.2928C58.4804 40.1053 58.7348 39.9999 59 39.9999H77C77.2652 39.9999 77.5196 40.1053 77.7071 40.2928C77.8946 40.4804 78 40.7347 78 40.9999C78 41.2652 77.8946 41.5195 77.7071 41.7071C77.5196 41.8946 77.2652 41.9999 77 41.9999H59C58.7348 41.9999 58.4804 41.8946 58.2929 41.7071C58.1054 41.5195 58 41.2652 58 40.9999ZM54 48.9999C54 48.7347 54.1054 48.4804 54.2929 48.2928C54.4804 48.1053 54.7348 47.9999 55 47.9999H73C73.2652 47.9999 73.5196 48.1053 73.7071 48.2928C73.8946 48.4804 74 48.7347 74 48.9999C74 49.2652 73.8946 49.5195 73.7071 49.7071C73.5196 49.8946 73.2652 49.9999 73 49.9999H55C54.7348 49.9999 54.4804 49.8946 54.2929 49.7071C54.1054 49.5195 54 49.2652 54 48.9999Z" fill="#1DBA23"/>
<path d="M57.2637 7.70898V8.33789C57.2637 9.08529 57.1702 9.75521 56.9834 10.3477C56.7965 10.9401 56.5277 11.4437 56.1768 11.8584C55.8258 12.2731 55.4043 12.5898 54.9121 12.8086C54.4245 13.0273 53.8776 13.1367 53.2715 13.1367C52.6836 13.1367 52.1436 13.0273 51.6514 12.8086C51.1637 12.5898 50.7399 12.2731 50.3799 11.8584C50.0244 11.4437 49.7487 10.9401 49.5527 10.3477C49.3568 9.75521 49.2588 9.08529 49.2588 8.33789V7.70898C49.2588 6.96159 49.3545 6.29395 49.5459 5.70605C49.7419 5.11361 50.0176 4.61003 50.373 4.19531C50.7285 3.77604 51.1501 3.45703 51.6377 3.23828C52.1299 3.01953 52.6699 2.91016 53.2578 2.91016C53.8639 2.91016 54.4108 3.01953 54.8984 3.23828C55.3906 3.45703 55.8122 3.77604 56.1631 4.19531C56.5186 4.61003 56.7897 5.11361 56.9766 5.70605C57.168 6.29395 57.2637 6.96159 57.2637 7.70898ZM55.958 8.33789V7.69531C55.958 7.10286 55.8965 6.57878 55.7734 6.12305C55.6549 5.66732 55.4795 5.28451 55.2471 4.97461C55.0146 4.66471 54.7298 4.43001 54.3926 4.27051C54.0599 4.111 53.6816 4.03125 53.2578 4.03125C52.8477 4.03125 52.4762 4.111 52.1436 4.27051C51.8154 4.43001 51.5329 4.66471 51.2959 4.97461C51.0635 5.28451 50.8835 5.66732 50.7559 6.12305C50.6283 6.57878 50.5645 7.10286 50.5645 7.69531V8.33789C50.5645 8.9349 50.6283 9.46354 50.7559 9.92383C50.8835 10.3796 51.0658 10.7646 51.3027 11.0791C51.5443 11.389 51.8291 11.6237 52.1572 11.7832C52.4899 11.9427 52.8613 12.0225 53.2715 12.0225C53.6999 12.0225 54.0804 11.9427 54.4131 11.7832C54.7458 11.6237 55.026 11.389 55.2539 11.0791C55.4863 10.7646 55.6618 10.3796 55.7803 9.92383C55.8988 9.46354 55.958 8.9349 55.958 8.33789ZM63.5732 11.291V5.60352H64.8447V13H63.6348L63.5732 11.291ZM63.8125 9.73242L64.3389 9.71875C64.3389 10.2109 64.2865 10.6667 64.1816 11.0859C64.0814 11.5007 63.9173 11.8607 63.6895 12.166C63.4616 12.4714 63.1631 12.7106 62.7939 12.8838C62.4248 13.0524 61.9759 13.1367 61.4473 13.1367C61.0872 13.1367 60.7568 13.0843 60.4561 12.9795C60.1598 12.8747 59.9046 12.7129 59.6904 12.4941C59.4762 12.2754 59.3099 11.9906 59.1914 11.6396C59.0775 11.2887 59.0205 10.8672 59.0205 10.375V5.60352H60.2852V10.3887C60.2852 10.7214 60.3216 10.9971 60.3945 11.2158C60.472 11.43 60.5745 11.6009 60.7021 11.7285C60.8343 11.8516 60.9801 11.9382 61.1396 11.9883C61.3037 12.0384 61.4723 12.0635 61.6455 12.0635C62.1833 12.0635 62.6094 11.9609 62.9238 11.7559C63.2383 11.5462 63.4639 11.266 63.6006 10.915C63.7419 10.5596 63.8125 10.1654 63.8125 9.73242ZM69.8691 5.60352V6.57422H65.8701V5.60352H69.8691ZM67.2236 3.80566H68.4883V11.168C68.4883 11.4186 68.527 11.6077 68.6045 11.7354C68.682 11.863 68.7822 11.9473 68.9053 11.9883C69.0283 12.0293 69.1605 12.0498 69.3018 12.0498C69.4066 12.0498 69.516 12.0407 69.6299 12.0225C69.7484 11.9997 69.8372 11.9814 69.8965 11.9678L69.9033 13C69.8031 13.0319 69.6709 13.0615 69.5068 13.0889C69.3473 13.1208 69.1536 13.1367 68.9258 13.1367C68.6159 13.1367 68.3311 13.0752 68.0713 12.9521C67.8115 12.8291 67.6042 12.624 67.4492 12.3369C67.2988 12.0452 67.2236 11.6533 67.2236 11.1611V3.80566ZM72.6172 7.02539V15.8438H71.3457V5.60352H72.5078L72.6172 7.02539ZM77.6006 9.24023V9.38379C77.6006 9.92155 77.5368 10.4206 77.4092 10.8809C77.2816 11.3366 77.0947 11.7331 76.8486 12.0703C76.6071 12.4076 76.3086 12.6696 75.9531 12.8564C75.5977 13.0433 75.1898 13.1367 74.7295 13.1367C74.2601 13.1367 73.8454 13.0592 73.4854 12.9043C73.1253 12.7493 72.82 12.5238 72.5693 12.2275C72.3187 11.9313 72.1182 11.5758 71.9678 11.1611C71.8219 10.7464 71.7217 10.2793 71.667 9.75977V8.99414C71.7217 8.44727 71.8242 7.95736 71.9746 7.52441C72.125 7.09147 72.3232 6.72233 72.5693 6.41699C72.82 6.1071 73.123 5.8724 73.4785 5.71289C73.834 5.54883 74.2441 5.4668 74.709 5.4668C75.1738 5.4668 75.5863 5.55794 75.9463 5.74023C76.3063 5.91797 76.6094 6.17318 76.8555 6.50586C77.1016 6.83854 77.2861 7.2373 77.4092 7.70215C77.5368 8.16243 77.6006 8.67513 77.6006 9.24023ZM76.3291 9.38379V9.24023C76.3291 8.87109 76.2904 8.52474 76.2129 8.20117C76.1354 7.87305 76.0146 7.58594 75.8506 7.33984C75.6911 7.08919 75.486 6.89323 75.2354 6.75195C74.9847 6.60612 74.6862 6.5332 74.3398 6.5332C74.0208 6.5332 73.7428 6.58789 73.5059 6.69727C73.2734 6.80664 73.0752 6.95475 72.9111 7.1416C72.7471 7.32389 72.6126 7.53353 72.5078 7.77051C72.4076 8.00293 72.3324 8.24447 72.2822 8.49512V10.2656C72.3734 10.5846 72.501 10.8854 72.665 11.168C72.8291 11.446 73.0479 11.6715 73.3213 11.8447C73.5947 12.0133 73.9388 12.0977 74.3535 12.0977C74.6953 12.0977 74.9893 12.027 75.2354 11.8857C75.486 11.7399 75.6911 11.5417 75.8506 11.291C76.0146 11.0404 76.1354 10.7533 76.2129 10.4297C76.2904 10.1016 76.3291 9.75293 76.3291 9.38379ZM83.7393 11.291V5.60352H85.0107V13H83.8008L83.7393 11.291ZM83.9785 9.73242L84.5049 9.71875C84.5049 10.2109 84.4525 10.6667 84.3477 11.0859C84.2474 11.5007 84.0833 11.8607 83.8555 12.166C83.6276 12.4714 83.3291 12.7106 82.96 12.8838C82.5908 13.0524 82.1419 13.1367 81.6133 13.1367C81.2533 13.1367 80.9229 13.0843 80.6221 12.9795C80.3258 12.8747 80.0706 12.7129 79.8564 12.4941C79.6423 12.2754 79.4759 11.9906 79.3574 11.6396C79.2435 11.2887 79.1865 10.8672 79.1865 10.375V5.60352H80.4512V10.3887C80.4512 10.7214 80.4876 10.9971 80.5605 11.2158C80.638 11.43 80.7406 11.6009 80.8682 11.7285C81.0003 11.8516 81.1462 11.9382 81.3057 11.9883C81.4697 12.0384 81.6383 12.0635 81.8115 12.0635C82.3493 12.0635 82.7754 11.9609 83.0898 11.7559C83.4043 11.5462 83.6299 11.266 83.7666 10.915C83.9079 10.5596 83.9785 10.1654 83.9785 9.73242ZM90.0352 5.60352V6.57422H86.0361V5.60352H90.0352ZM87.3896 3.80566H88.6543V11.168C88.6543 11.4186 88.693 11.6077 88.7705 11.7354C88.848 11.863 88.9482 11.9473 89.0713 11.9883C89.1943 12.0293 89.3265 12.0498 89.4678 12.0498C89.5726 12.0498 89.682 12.0407 89.7959 12.0225C89.9144 11.9997 90.0033 11.9814 90.0625 11.9678L90.0693 13C89.9691 13.0319 89.8369 13.0615 89.6729 13.0889C89.5133 13.1208 89.3197 13.1367 89.0918 13.1367C88.7819 13.1367 88.4971 13.0752 88.2373 12.9521C87.9775 12.8291 87.7702 12.624 87.6152 12.3369C87.4648 12.0452 87.3896 11.6533 87.3896 11.1611V3.80566Z" fill="#6C7D8C"/>
</svg>
