<svg width="139" height="53" viewBox="0 0 139 53" fill="none" xmlns="http://www.w3.org/2000/svg">
<path d="M83 37H82V33H80V37H78V33H76V37H75C74.7348 37 74.4804 37.1054 74.2929 37.2929C74.1054 37.4804 74 37.7348 74 38V42C74.0015 43.1521 74.4002 44.2684 75.1288 45.1608C75.8574 46.0532 76.8715 46.6671 78 46.899V50C78 50.2652 77.8946 50.5196 77.7071 50.7071C77.5196 50.8946 77.2652 51 77 51H59C58.7348 51 58.4804 50.8946 58.2929 50.7071C58.1054 50.5196 58 50.2652 58 50C58 49.7348 58.1054 49.4804 58.2929 49.2929C58.4804 49.1054 58.7348 49 59 49H64C64.7956 49 65.5587 48.6839 66.1213 48.1213C66.6839 47.5587 67 46.7956 67 46C67 45.2044 66.6839 44.4413 66.1213 43.8787C65.5587 43.3161 64.7956 43 64 43H59C58.7348 43 58.4804 42.8946 58.2929 42.7071C58.1054 42.5196 58 42.2652 58 42C58 41.7348 58.1054 41.4804 58.2929 41.2929C58.4804 41.1054 58.7348 41 59 41H64C64.7954 40.9992 65.558 40.6829 66.1204 40.1204C66.6829 39.558 66.9992 38.7954 67 38V34H68C69.0605 33.9987 70.0771 33.5768 70.827 32.827C71.5768 32.0771 71.9987 31.0605 72 30V27H69C67.9761 27.0015 66.9923 27.3976 66.253 28.106C65.735 27.166 64.9744 26.3821 64.0505 25.8358C63.1267 25.2896 62.0733 25.0009 61 25H58V28C58.0019 29.5907 58.6346 31.1158 59.7594 32.2406C60.8842 33.3654 62.4093 33.9981 64 34H65V38C65 38.2652 64.8946 38.5196 64.7071 38.7071C64.5196 38.8946 64.2652 39 64 39H59C58.2044 39 57.4413 39.3161 56.8787 39.8787C56.3161 40.4413 56 41.2044 56 42C56 42.7956 56.3161 43.5587 56.8787 44.1213C57.4413 44.6839 58.2044 45 59 45H64C64.2652 45 64.5196 45.1054 64.7071 45.2929C64.8946 45.4804 65 45.7348 65 46C65 46.2652 64.8946 46.5196 64.7071 46.7071C64.5196 46.8946 64.2652 47 64 47H59C58.2044 47 57.4413 47.3161 56.8787 47.8787C56.3161 48.4413 56 49.2044 56 50C56 50.7956 56.3161 51.5587 56.8787 52.1213C57.4413 52.6839 58.2044 53 59 53H77C77.7954 52.9992 78.558 52.6829 79.1204 52.1204C79.6829 51.558 79.9992 50.7954 80 50V46.899C81.1285 46.6671 82.1426 46.0532 82.8712 45.1608C83.5998 44.2684 83.9985 43.1521 84 42V38C84 37.7348 83.8946 37.4804 83.7071 37.2929C83.5196 37.1054 83.2652 37 83 37ZM67 31C67.0005 30.4697 67.2114 29.9613 67.5864 29.5864C67.9613 29.2114 68.4697 29.0005 69 29H70V30C69.9995 30.5303 69.7886 31.0387 69.4136 31.4136C69.0387 31.7886 68.5303 31.9995 68 32H67V31ZM64 32C62.9395 31.9987 61.9229 31.5768 61.173 30.827C60.4232 30.0771 60.0013 29.0605 60 28V27H61C62.0605 27.0013 63.0771 27.4232 63.827 28.173C64.5768 28.9229 64.9987 29.9395 65 31V32H64ZM82 42C82 42.7956 81.6839 43.5587 81.1213 44.1213C80.5587 44.6839 79.7956 45 79 45C78.2044 45 77.4413 44.6839 76.8787 44.1213C76.3161 43.5587 76 42.7956 76 42V39H82V42Z" fill="#1DBA23"/>
<path d="M13.7871 3.04688H17.082C17.8294 3.04688 18.4606 3.16081 18.9756 3.38867C19.4951 3.61654 19.8893 3.95378 20.1582 4.40039C20.4316 4.84245 20.5684 5.38704 20.5684 6.03418C20.5684 6.48991 20.4749 6.9069 20.2881 7.28516C20.1058 7.65885 19.8415 7.97786 19.4951 8.24219C19.1533 8.50195 18.7432 8.69564 18.2646 8.82324L17.8955 8.9668H14.7988L14.7852 7.89355H17.123C17.597 7.89355 17.9912 7.81152 18.3057 7.64746C18.6201 7.47884 18.8571 7.25326 19.0166 6.9707C19.1761 6.68815 19.2559 6.37598 19.2559 6.03418C19.2559 5.65137 19.1807 5.31641 19.0303 5.0293C18.8799 4.74219 18.6429 4.52116 18.3193 4.36621C18.0003 4.20671 17.5879 4.12695 17.082 4.12695H15.1064V13H13.7871V3.04688ZM19.6045 13L17.1846 8.48828L18.5586 8.48145L21.0127 12.918V13H19.6045ZM25.292 13.1367C24.777 13.1367 24.3099 13.0501 23.8906 12.877C23.4759 12.6992 23.1182 12.4508 22.8174 12.1318C22.5212 11.8128 22.2933 11.4346 22.1338 10.9971C21.9743 10.5596 21.8945 10.0811 21.8945 9.56152V9.27441C21.8945 8.67285 21.9834 8.13737 22.1611 7.66797C22.3389 7.19401 22.5804 6.79297 22.8857 6.46484C23.1911 6.13672 23.5374 5.88835 23.9248 5.71973C24.3122 5.55111 24.7132 5.4668 25.1279 5.4668C25.6566 5.4668 26.1123 5.55794 26.4951 5.74023C26.8825 5.92253 27.1992 6.17773 27.4453 6.50586C27.6914 6.82943 27.8737 7.21224 27.9922 7.6543C28.1107 8.0918 28.1699 8.57031 28.1699 9.08984V9.65723H22.6465V8.625H26.9053V8.5293C26.887 8.20117 26.8187 7.88216 26.7002 7.57227C26.5863 7.26237 26.404 7.00716 26.1533 6.80664C25.9027 6.60612 25.5609 6.50586 25.1279 6.50586C24.8408 6.50586 24.5765 6.56738 24.335 6.69043C24.0934 6.80892 23.8861 6.98665 23.7129 7.22363C23.5397 7.46061 23.4053 7.75 23.3096 8.0918C23.2139 8.43359 23.166 8.8278 23.166 9.27441V9.56152C23.166 9.91243 23.2139 10.2428 23.3096 10.5527C23.4098 10.8581 23.5534 11.127 23.7402 11.3594C23.9316 11.5918 24.1618 11.7741 24.4307 11.9062C24.7041 12.0384 25.014 12.1045 25.3604 12.1045C25.807 12.1045 26.1852 12.0133 26.4951 11.8311C26.805 11.6488 27.0762 11.4049 27.3086 11.0996L28.0742 11.708C27.9147 11.9495 27.7119 12.1797 27.4658 12.3984C27.2197 12.6172 26.9167 12.7949 26.5566 12.9316C26.2012 13.0684 25.7796 13.1367 25.292 13.1367ZM30.9111 7.18262V13H29.6465V5.60352H30.8428L30.9111 7.18262ZM30.6104 9.02148L30.084 9.00098C30.0885 8.49512 30.1637 8.02799 30.3096 7.59961C30.4554 7.16667 30.6605 6.79069 30.9248 6.47168C31.1891 6.15267 31.5036 5.90658 31.8682 5.7334C32.2373 5.55566 32.6452 5.4668 33.0918 5.4668C33.4564 5.4668 33.7845 5.51693 34.0762 5.61719C34.3678 5.71289 34.6162 5.86784 34.8213 6.08203C35.0309 6.29622 35.1904 6.57422 35.2998 6.91602C35.4092 7.25326 35.4639 7.66569 35.4639 8.15332V13H34.1924V8.13965C34.1924 7.75228 34.1354 7.44238 34.0215 7.20996C33.9076 6.97298 33.7412 6.80208 33.5225 6.69727C33.3037 6.58789 33.0348 6.5332 32.7158 6.5332C32.4014 6.5332 32.1143 6.59928 31.8545 6.73145C31.5993 6.86361 31.3783 7.0459 31.1914 7.27832C31.0091 7.51074 30.8656 7.77734 30.7607 8.07812C30.6605 8.37435 30.6104 8.6888 30.6104 9.02148ZM40.4541 13.1367C39.9391 13.1367 39.472 13.0501 39.0527 12.877C38.638 12.6992 38.2803 12.4508 37.9795 12.1318C37.6833 11.8128 37.4554 11.4346 37.2959 10.9971C37.1364 10.5596 37.0566 10.0811 37.0566 9.56152V9.27441C37.0566 8.67285 37.1455 8.13737 37.3232 7.66797C37.501 7.19401 37.7425 6.79297 38.0479 6.46484C38.3532 6.13672 38.6995 5.88835 39.0869 5.71973C39.4743 5.55111 39.8753 5.4668 40.29 5.4668C40.8187 5.4668 41.2744 5.55794 41.6572 5.74023C42.0446 5.92253 42.3613 6.17773 42.6074 6.50586C42.8535 6.82943 43.0358 7.21224 43.1543 7.6543C43.2728 8.0918 43.332 8.57031 43.332 9.08984V9.65723H37.8086V8.625H42.0674V8.5293C42.0492 8.20117 41.9808 7.88216 41.8623 7.57227C41.7484 7.26237 41.5661 7.00716 41.3154 6.80664C41.0648 6.60612 40.723 6.50586 40.29 6.50586C40.0029 6.50586 39.7386 6.56738 39.4971 6.69043C39.2555 6.80892 39.0482 6.98665 38.875 7.22363C38.7018 7.46061 38.5674 7.75 38.4717 8.0918C38.376 8.43359 38.3281 8.8278 38.3281 9.27441V9.56152C38.3281 9.91243 38.376 10.2428 38.4717 10.5527C38.5719 10.8581 38.7155 11.127 38.9023 11.3594C39.0938 11.5918 39.3239 11.7741 39.5928 11.9062C39.8662 12.0384 40.1761 12.1045 40.5225 12.1045C40.9691 12.1045 41.3473 12.0133 41.6572 11.8311C41.9671 11.6488 42.2383 11.4049 42.4707 11.0996L43.2363 11.708C43.0768 11.9495 42.874 12.1797 42.6279 12.3984C42.3818 12.6172 42.0788 12.7949 41.7188 12.9316C41.3633 13.0684 40.9417 13.1367 40.4541 13.1367ZM46.6816 11.6875L48.582 5.60352H49.416L49.252 6.81348L47.3174 13H46.5039L46.6816 11.6875ZM45.4033 5.60352L47.0234 11.7559L47.1396 13H46.2852L44.1387 5.60352H45.4033ZM51.2344 11.708L52.7793 5.60352H54.0371L51.8906 13H51.043L51.2344 11.708ZM49.6006 5.60352L51.46 11.585L51.6719 13H50.8652L48.876 6.7998L48.7119 5.60352H49.6006ZM59.6973 11.7354V7.92773C59.6973 7.63607 59.638 7.38314 59.5195 7.16895C59.4056 6.9502 59.2324 6.78158 59 6.66309C58.7676 6.5446 58.4805 6.48535 58.1387 6.48535C57.8197 6.48535 57.5394 6.54004 57.2979 6.64941C57.0609 6.75879 56.874 6.90234 56.7373 7.08008C56.6051 7.25781 56.5391 7.44922 56.5391 7.6543H55.2744C55.2744 7.38997 55.3428 7.12793 55.4795 6.86816C55.6162 6.6084 55.8122 6.3737 56.0674 6.16406C56.3271 5.94987 56.637 5.78125 56.9971 5.6582C57.3617 5.5306 57.7673 5.4668 58.2139 5.4668C58.7516 5.4668 59.2256 5.55794 59.6357 5.74023C60.0505 5.92253 60.374 6.19824 60.6064 6.56738C60.8434 6.93197 60.9619 7.38997 60.9619 7.94141V11.3867C60.9619 11.6328 60.9824 11.8949 61.0234 12.1729C61.069 12.4508 61.1351 12.6901 61.2217 12.8906V13H59.9023C59.8385 12.8542 59.7884 12.6605 59.752 12.4189C59.7155 12.1729 59.6973 11.945 59.6973 11.7354ZM59.916 8.51562L59.9297 9.4043H58.6514C58.2913 9.4043 57.9701 9.43392 57.6875 9.49316C57.4049 9.54785 57.168 9.63216 56.9766 9.74609C56.7852 9.86003 56.6393 10.0036 56.5391 10.1768C56.4388 10.3454 56.3887 10.5436 56.3887 10.7715C56.3887 11.0039 56.4411 11.2158 56.5459 11.4072C56.6507 11.5986 56.8079 11.7513 57.0176 11.8652C57.2318 11.9746 57.4938 12.0293 57.8037 12.0293C58.1911 12.0293 58.5329 11.9473 58.8291 11.7832C59.1253 11.6191 59.36 11.4186 59.5332 11.1816C59.7109 10.9447 59.8066 10.7145 59.8203 10.4912L60.3604 11.0996C60.3285 11.291 60.2419 11.5029 60.1006 11.7354C59.9593 11.9678 59.7702 12.1911 59.5332 12.4053C59.3008 12.6149 59.0228 12.7904 58.6992 12.9316C58.3802 13.0684 58.0202 13.1367 57.6191 13.1367C57.1178 13.1367 56.6781 13.0387 56.2998 12.8428C55.9261 12.6468 55.6344 12.3848 55.4248 12.0566C55.2197 11.724 55.1172 11.3525 55.1172 10.9424C55.1172 10.5459 55.1947 10.1973 55.3496 9.89648C55.5046 9.59115 55.7279 9.33822 56.0195 9.1377C56.3112 8.93262 56.6621 8.77767 57.0723 8.67285C57.4824 8.56803 57.9404 8.51562 58.4463 8.51562H59.916ZM62.9443 2.5H64.2158V11.5645L64.1064 13H62.9443V2.5ZM69.2129 9.24023V9.38379C69.2129 9.92155 69.1491 10.4206 69.0215 10.8809C68.8939 11.3366 68.707 11.7331 68.4609 12.0703C68.2148 12.4076 67.9141 12.6696 67.5586 12.8564C67.2031 13.0433 66.7952 13.1367 66.335 13.1367C65.8656 13.1367 65.4531 13.057 65.0977 12.8975C64.7467 12.7334 64.4505 12.4987 64.209 12.1934C63.9674 11.888 63.7738 11.5189 63.6279 11.0859C63.4867 10.653 63.3887 10.1654 63.334 9.62305V8.99414C63.3887 8.44727 63.4867 7.95736 63.6279 7.52441C63.7738 7.09147 63.9674 6.72233 64.209 6.41699C64.4505 6.1071 64.7467 5.8724 65.0977 5.71289C65.4486 5.54883 65.8564 5.4668 66.3213 5.4668C66.7861 5.4668 67.1986 5.55794 67.5586 5.74023C67.9186 5.91797 68.2194 6.17318 68.4609 6.50586C68.707 6.83854 68.8939 7.2373 69.0215 7.70215C69.1491 8.16243 69.2129 8.67513 69.2129 9.24023ZM67.9414 9.38379V9.24023C67.9414 8.87109 67.9072 8.52474 67.8389 8.20117C67.7705 7.87305 67.6611 7.58594 67.5107 7.33984C67.3604 7.08919 67.1621 6.89323 66.916 6.75195C66.6699 6.60612 66.3669 6.5332 66.0068 6.5332C65.6878 6.5332 65.4098 6.58789 65.1729 6.69727C64.9404 6.80664 64.7422 6.95475 64.5781 7.1416C64.4141 7.32389 64.2796 7.53353 64.1748 7.77051C64.0745 8.00293 63.9993 8.24447 63.9492 8.49512V10.1426C64.0221 10.4616 64.1406 10.7692 64.3047 11.0654C64.4733 11.3571 64.6966 11.5964 64.9746 11.7832C65.2572 11.9701 65.6058 12.0635 66.0205 12.0635C66.3623 12.0635 66.654 11.9951 66.8955 11.8584C67.1416 11.7171 67.3398 11.5234 67.4902 11.2773C67.6452 11.0312 67.7591 10.7464 67.832 10.4229C67.9049 10.0993 67.9414 9.75293 67.9414 9.38379ZM72.1865 2.5V13H70.915V2.5H72.1865ZM77.2861 13.1367C76.7712 13.1367 76.304 13.0501 75.8848 12.877C75.4701 12.6992 75.1123 12.4508 74.8115 12.1318C74.5153 11.8128 74.2874 11.4346 74.1279 10.9971C73.9684 10.5596 73.8887 10.0811 73.8887 9.56152V9.27441C73.8887 8.67285 73.9775 8.13737 74.1553 7.66797C74.333 7.19401 74.5745 6.79297 74.8799 6.46484C75.1852 6.13672 75.5316 5.88835 75.9189 5.71973C76.3063 5.55111 76.7074 5.4668 77.1221 5.4668C77.6507 5.4668 78.1064 5.55794 78.4893 5.74023C78.8766 5.92253 79.1934 6.17773 79.4395 6.50586C79.6855 6.82943 79.8678 7.21224 79.9863 7.6543C80.1048 8.0918 80.1641 8.57031 80.1641 9.08984V9.65723H74.6406V8.625H78.8994V8.5293C78.8812 8.20117 78.8128 7.88216 78.6943 7.57227C78.5804 7.26237 78.3981 7.00716 78.1475 6.80664C77.8968 6.60612 77.555 6.50586 77.1221 6.50586C76.835 6.50586 76.5706 6.56738 76.3291 6.69043C76.0876 6.80892 75.8802 6.98665 75.707 7.22363C75.5339 7.46061 75.3994 7.75 75.3037 8.0918C75.208 8.43359 75.1602 8.8278 75.1602 9.27441V9.56152C75.1602 9.91243 75.208 10.2428 75.3037 10.5527C75.404 10.8581 75.5475 11.127 75.7344 11.3594C75.9258 11.5918 76.1559 11.7741 76.4248 11.9062C76.6982 12.0384 77.0081 12.1045 77.3545 12.1045C77.8011 12.1045 78.1794 12.0133 78.4893 11.8311C78.7992 11.6488 79.0703 11.4049 79.3027 11.0996L80.0684 11.708C79.9089 11.9495 79.7061 12.1797 79.46 12.3984C79.2139 12.6172 78.9108 12.7949 78.5508 12.9316C78.1953 13.0684 77.7738 13.1367 77.2861 13.1367ZM91.6279 11.9268V13H86.3574V11.9268H91.6279ZM86.624 3.04688V13H85.3047V3.04688H86.624ZM90.9307 7.32617V8.39941H86.3574V7.32617H90.9307ZM91.5596 3.04688V4.12695H86.3574V3.04688H91.5596ZM94.335 7.18262V13H93.0703V5.60352H94.2666L94.335 7.18262ZM94.0342 9.02148L93.5078 9.00098C93.5124 8.49512 93.5876 8.02799 93.7334 7.59961C93.8792 7.16667 94.0843 6.79069 94.3486 6.47168C94.613 6.15267 94.9274 5.90658 95.292 5.7334C95.6611 5.55566 96.069 5.4668 96.5156 5.4668C96.8802 5.4668 97.2083 5.51693 97.5 5.61719C97.7917 5.71289 98.04 5.86784 98.2451 6.08203C98.4548 6.29622 98.6143 6.57422 98.7236 6.91602C98.833 7.25326 98.8877 7.66569 98.8877 8.15332V13H97.6162V8.13965C97.6162 7.75228 97.5592 7.44238 97.4453 7.20996C97.3314 6.97298 97.165 6.80208 96.9463 6.69727C96.7275 6.58789 96.4587 6.5332 96.1396 6.5332C95.8252 6.5332 95.5381 6.59928 95.2783 6.73145C95.0231 6.86361 94.8021 7.0459 94.6152 7.27832C94.4329 7.51074 94.2894 7.77734 94.1846 8.07812C94.0843 8.37435 94.0342 8.6888 94.0342 9.02148ZM103.878 13.1367C103.363 13.1367 102.896 13.0501 102.477 12.877C102.062 12.6992 101.704 12.4508 101.403 12.1318C101.107 11.8128 100.879 11.4346 100.72 10.9971C100.56 10.5596 100.48 10.0811 100.48 9.56152V9.27441C100.48 8.67285 100.569 8.13737 100.747 7.66797C100.925 7.19401 101.166 6.79297 101.472 6.46484C101.777 6.13672 102.123 5.88835 102.511 5.71973C102.898 5.55111 103.299 5.4668 103.714 5.4668C104.243 5.4668 104.698 5.55794 105.081 5.74023C105.468 5.92253 105.785 6.17773 106.031 6.50586C106.277 6.82943 106.46 7.21224 106.578 7.6543C106.697 8.0918 106.756 8.57031 106.756 9.08984V9.65723H101.232V8.625H105.491V8.5293C105.473 8.20117 105.405 7.88216 105.286 7.57227C105.172 7.26237 104.99 7.00716 104.739 6.80664C104.489 6.60612 104.147 6.50586 103.714 6.50586C103.427 6.50586 103.162 6.56738 102.921 6.69043C102.679 6.80892 102.472 6.98665 102.299 7.22363C102.126 7.46061 101.991 7.75 101.896 8.0918C101.8 8.43359 101.752 8.8278 101.752 9.27441V9.56152C101.752 9.91243 101.8 10.2428 101.896 10.5527C101.996 10.8581 102.139 11.127 102.326 11.3594C102.518 11.5918 102.748 11.7741 103.017 11.9062C103.29 12.0384 103.6 12.1045 103.946 12.1045C104.393 12.1045 104.771 12.0133 105.081 11.8311C105.391 11.6488 105.662 11.4049 105.895 11.0996L106.66 11.708C106.501 11.9495 106.298 12.1797 106.052 12.3984C105.806 12.6172 105.503 12.7949 105.143 12.9316C104.787 13.0684 104.366 13.1367 103.878 13.1367ZM109.497 6.76562V13H108.232V5.60352H109.463L109.497 6.76562ZM111.808 5.5625L111.801 6.73828C111.696 6.71549 111.596 6.70182 111.5 6.69727C111.409 6.68815 111.304 6.68359 111.186 6.68359C110.894 6.68359 110.636 6.72917 110.413 6.82031C110.19 6.91146 110.001 7.03906 109.846 7.20312C109.691 7.36719 109.568 7.56315 109.477 7.79102C109.39 8.01432 109.333 8.26042 109.306 8.5293L108.95 8.73438C108.95 8.28776 108.993 7.86849 109.08 7.47656C109.171 7.08464 109.31 6.73828 109.497 6.4375C109.684 6.13216 109.921 5.89518 110.208 5.72656C110.5 5.55339 110.846 5.4668 111.247 5.4668C111.338 5.4668 111.443 5.47819 111.562 5.50098C111.68 5.51921 111.762 5.53971 111.808 5.5625ZM117.632 5.60352H118.78V12.8428C118.78 13.4945 118.648 14.0505 118.384 14.5107C118.119 14.971 117.75 15.3197 117.276 15.5566C116.807 15.7982 116.265 15.9189 115.649 15.9189C115.394 15.9189 115.093 15.8779 114.747 15.7959C114.405 15.7184 114.068 15.584 113.735 15.3926C113.407 15.2057 113.132 14.9528 112.908 14.6338L113.571 13.8818C113.881 14.2555 114.205 14.5153 114.542 14.6611C114.884 14.807 115.221 14.8799 115.554 14.8799C115.955 14.8799 116.301 14.8047 116.593 14.6543C116.884 14.5039 117.11 14.2806 117.27 13.9844C117.434 13.6927 117.516 13.3327 117.516 12.9043V7.23047L117.632 5.60352ZM112.539 9.38379V9.24023C112.539 8.67513 112.605 8.16243 112.737 7.70215C112.874 7.2373 113.068 6.83854 113.318 6.50586C113.574 6.17318 113.881 5.91797 114.241 5.74023C114.601 5.55794 115.007 5.4668 115.458 5.4668C115.923 5.4668 116.328 5.54883 116.675 5.71289C117.026 5.8724 117.322 6.1071 117.563 6.41699C117.81 6.72233 118.003 7.09147 118.145 7.52441C118.286 7.95736 118.384 8.44727 118.438 8.99414V9.62305C118.388 10.1654 118.29 10.653 118.145 11.0859C118.003 11.5189 117.81 11.888 117.563 12.1934C117.322 12.4987 117.026 12.7334 116.675 12.8975C116.324 13.057 115.914 13.1367 115.444 13.1367C115.002 13.1367 114.601 13.0433 114.241 12.8564C113.886 12.6696 113.58 12.4076 113.325 12.0703C113.07 11.7331 112.874 11.3366 112.737 10.8809C112.605 10.4206 112.539 9.92155 112.539 9.38379ZM113.804 9.24023V9.38379C113.804 9.75293 113.84 10.0993 113.913 10.4229C113.991 10.7464 114.107 11.0312 114.262 11.2773C114.421 11.5234 114.624 11.7171 114.87 11.8584C115.116 11.9951 115.41 12.0635 115.752 12.0635C116.171 12.0635 116.518 11.9746 116.791 11.7969C117.064 11.6191 117.281 11.3844 117.44 11.0928C117.604 10.8011 117.732 10.4844 117.823 10.1426V8.49512C117.773 8.24447 117.696 8.00293 117.591 7.77051C117.491 7.53353 117.358 7.32389 117.194 7.1416C117.035 6.95475 116.837 6.80664 116.6 6.69727C116.363 6.58789 116.085 6.5332 115.766 6.5332C115.419 6.5332 115.121 6.60612 114.87 6.75195C114.624 6.89323 114.421 7.08919 114.262 7.33984C114.107 7.58594 113.991 7.87305 113.913 8.20117C113.84 8.52474 113.804 8.87109 113.804 9.24023ZM122.779 12.2344L124.837 5.60352H126.19L123.224 14.1416C123.155 14.3239 123.064 14.5199 122.95 14.7295C122.841 14.9437 122.7 15.1465 122.526 15.3379C122.353 15.5293 122.144 15.6842 121.897 15.8027C121.656 15.9258 121.367 15.9873 121.029 15.9873C120.929 15.9873 120.801 15.9736 120.646 15.9463C120.492 15.9189 120.382 15.8962 120.318 15.8779L120.312 14.8525C120.348 14.8571 120.405 14.8617 120.482 14.8662C120.564 14.8753 120.621 14.8799 120.653 14.8799C120.94 14.8799 121.184 14.8411 121.385 14.7637C121.585 14.6908 121.754 14.5654 121.891 14.3877C122.032 14.2145 122.153 13.9753 122.253 13.6699L122.779 12.2344ZM121.269 5.60352L123.189 11.3457L123.518 12.6787L122.608 13.1436L119.888 5.60352H121.269Z" fill="#6C7D8C"/>
</svg>
